<svg width="36" height="44" viewBox="0 0 36 44" fill="none" xmlns="http://www.w3.org/2000/svg"><circle cx="17.552" cy="22.14" r="16.041" transform="rotate(88.362 17.552 22.14)" fill="url(#paint0_linear)"/><path d="M24.107 26.219H11.049a3.665 3.665 0 013.661-3.5h5.672a3.731 3.731 0 013.725 3.5zM7.14 9.41a7.5 7.5 0 016.749-4.228h7.428a7.5 7.5 0 016.595 3.927l1.25 2.306c2.707 4.998-.912 11.073-6.595 11.073H12.77c-5.536 0-9.164-5.792-6.749-10.772l1.119-2.307z" fill="#fff" stroke="#4C5560"/><path d="M20.816 17.881c0 .947-1.391 1.837-3.183 1.837-1.792 0-3.245-.767-3.245-1.714.428-1.164 1.391.734 3.184.734 1.792 0 2.755-1.714 3.244-.857z" fill="#4C5560"/><circle cx="17.572" cy="1.959" r="1.459" stroke="#4C5560"/><path stroke="#4C5560" stroke-width=".529" d="M17.382 3.618h.529V5.03h-.529z"/><path d="M7.897 12.664a3.031 3.031 0 011.565-2.43l.456-.25a7.406 7.406 0 013.086-.674h9.459a7.33 7.33 0 012.617.483l.475.182c.228.087.444.2.645.339 2.487 1.712 1.276 5.608-1.743 5.608H10.92a3.031 3.031 0 01-3.023-3.258z" fill="#4C5560"/><circle cx="13.531" cy="12.616" r="1.704" stroke="#61F5E4"/><circle cx="21.49" cy="12.669" r="1.704" stroke="#61F5E4"/><circle cx="13.129" cy="12.145" r=".332" fill="#fff"/><circle cx="21.848" cy="12.145" r=".332" fill="#fff"/><path d="M3.881 30.288a3.5 3.5 0 013.487-3.807h20.407a3.5 3.5 0 013.49 3.758l-.694 9.388a3.5 3.5 0 01-3.49 3.242H8.194a3.5 3.5 0 01-3.486-3.193l-.827-9.388z" fill="#fff" stroke="#4C5560"/><rect x="12.375" y="32.269" width="7.699" height="4.962" rx="2.481" fill="#61F5E4"/><rect x="15.113" y="32.269" width="7.699" height="4.962" rx="2.481" fill="#F36"/><rect x="15.113" y="39.968" width="7.699" height="4.962" rx="2.481" transform="rotate(-90 15.113 39.968)" fill="#F36"/><rect x="15.113" y="37.231" width="7.699" height="4.962" rx="2.481" transform="rotate(-90 15.113 37.23)" fill="#61F5E4"/><rect x="13.891" y="33.98" width="7.382" height="1.54" rx=".77" fill="#fff"/><rect x="16.824" y="38.453" width="7.382" height="1.54" rx=".77" transform="rotate(-90 16.824 38.453)" fill="#fff"/><rect x="15.506" y="32.663" width="4.175" height="4.175" rx="2.087" fill="#fff"/><path d="M15.113 32.27h1.71v.855a.856.856 0 01-.855.855h-.854-.001v-1.71z" fill="#61F5E4"/><path d="M20.074 32.27v1.71h-.855a.855.855 0 01-.855-.855v-.855h1.71z" fill="url(#paint1_linear)"/><path d="M15.113 37.23v-1.71h.855c.473 0 .856.383.856.855v.855H15.113z" fill="url(#paint2_linear)"/><path d="M20.074 37.23v-1.71h-.855a.856.856 0 00-.855.855v.855h1.71z" fill="#F36"/><defs><linearGradient id="paint0_linear" x1="17.86" y1="11.369" x2="17.474" y2="39.907" gradientUnits="userSpaceOnUse"><stop stop-color="#F36"/><stop offset="1" stop-color="#61F5E4"/></linearGradient><linearGradient id="paint1_linear" x1="21.272" y1="35.117" x2="17.068" y2="31.072" gradientUnits="userSpaceOnUse"><stop stop-color="#F36"/><stop offset="1" stop-color="#61F5E4"/></linearGradient><linearGradient id="paint2_linear" x1="13.89" y1="34.175" x2="17.96" y2="38.428" gradientUnits="userSpaceOnUse"><stop stop-color="#61F5E4"/><stop offset="1" stop-color="#F36"/></linearGradient></defs></svg>